# xmcd
#
# Track frame offsets: 
#        150
#        12451
#        22259
#        34818
#        48241
#        60452
#        74348
#        86745
#        103547
#        119801
#        132712
#        150227
#        163134
#        175462
#        191393
#        207404
#        221591
#        232306
#        246589
#
# Disc length: 3506 seconds
#
# Revision: 0
# Processed by: cddbd v1.5PL3 Copyright (c) Steve Scherf et al.
# Submitted via: ExactAudioCopy v0.90b4
#
DISCID=240db013
DTITLE=Merle Haggard - Oh Boy Classics Presents Merle Haggard
DYEAR=1900
DGENRE=Country
TTITLE0=Workin' Man Blues
TTITLE1=Mama Tried
TTITLE2=Silver Wings
TTITLE3=Cherokee Maiden
TTITLE4=Okie From Muskogee
TTITLE5=I Threw Away The Rose
TTITLE6=If We Make It Through December
TTITLE7=Today I Started Lovin' You Again
TTITLE8=Ramblin' Fever
TTITLE9=Swingin' Doors
TTITLE10=I Think I'll Stay Here And Drink
TTITLE11=The Fightin Side Of Me
TTITLE12=The Roots Of My Raising
TTITLE13=It's All In The Movies
TTITLE14=It's Not Love
TTITLE15=I'm A Lonesome Fugitive
TTITLE16=Old Man From The Mountain
TTITLE17=Branded Man
TTITLE18=Hungry Eyes
EXTD=
EXTT0=
EXTT1=
EXTT2=
EXTT3=
EXTT4=
EXTT5=
EXTT6=
EXTT7=
EXTT8=
EXTT9=
EXTT10=
EXTT11=
EXTT12=
EXTT13=
EXTT14=
EXTT15=
EXTT16=
EXTT17=
EXTT18=
PLAYORDER=
